# xmcd
#
# Track frame offsets:
#   150
#   11987
#   24780
#   35547
#   49452
#   66850
#   80320
#   95685
#   108812
#   125400
#
# Disc length: 1911 seconds
#
# Revision: 0
# Processed by: cddbd v1.5.1PL0 Copyright (c) Steve Scherf et al.
# Submitted via: uFREEDB ActiveX Control 1.5
#
DISCID=7c07750a
DTITLE=André and Andrade - sertaneja
DYEAR=2002
DGENRE=Country
TTITLE0=1.Amor Antigo
TTITLE1=2.Desencontro
TTITLE2=3.É Sempre Assim
TTITLE3=4.Terra
TTITLE4=5.Zé Feição
TTITLE5=6.Tudo Por Ela
TTITLE6=7.Chiquinha
TTITLE7=8.Te  Amar e Te  Amar
TTITLE8=9.Fim de Semana
TTITLE9=10.Dose Dupla
EXTD=
EXTT0=
EXTT1=
EXTT2=
EXTT3=
EXTT4=
EXTT5=
EXTT6=
EXTT7=
EXTT8=
EXTT9=
PLAYORDER=
